<?xml version="1.0" ?><svg viewBox="0 0 20.606 20.606" xmlns="http://www.w3.org/2000/svg"><defs><style>.cls-1{fill:#1a171b;}</style></defs><g data-name="Layer 2" id="Layer_2"><g data-name="Layer 1" id="Layer_1-2"><path class="cls-1" d="M20.294,7.493H14.9V.312A.313.313,0,0,0,14.59,0H.312A.312.312,0,0,0,0,.312V11.405a.312.312,0,0,0,.312.312H5.7v6.348a.312.312,0,0,0,.312.312H8.157v1.917a.315.315,0,0,0,.313.312.311.311,0,0,0,.15-.039l3.979-2.19h7.7a.312.312,0,0,0,.312-.312V7.806A.313.313,0,0,0,20.294,7.493ZM.625.625H14.278V11.092H12.136a.313.313,0,0,0-.312.313v1.7L8.238,11.131a.3.3,0,0,0-.15-.039H.625ZM19.982,17.753H12.519a.316.316,0,0,0-.151.038L8.782,19.766v-1.7a.312.312,0,0,0-.312-.312H6.328V11.717H8.007l3.979,2.19a.314.314,0,0,0,.462-.274V11.717H14.59a.313.313,0,0,0,.313-.312V8.118h5.079ZM7.545,2.774h4.693a.312.312,0,1,1,0,.623H7.545A.312.312,0,0,1,7.545,2.774Zm-4.881,0h2.8a.312.312,0,0,1,0,.623h-2.8A.312.312,0,0,1,2.664,2.774Zm9.574,3.4H9.887a.313.313,0,0,1,0-.625h2.351A.313.313,0,0,1,12.238,6.171ZM2.664,5.546H7.805a.313.313,0,0,1,0,.625H2.664A.313.313,0,0,1,2.664,5.546Zm7.493,3.4H7.545a.313.313,0,1,1,0-.625h2.612a.313.313,0,0,1,0,.625Zm-4.694,0h-2.8a.313.313,0,0,1,0-.625h2.8A.313.313,0,0,1,5.463,8.944Z" id="chat"/></g></g></svg>