<svg width="16" height="12" viewBox="0 0 16 12" fill="none" xmlns="http://www.w3.org/2000/svg">
<path d="M0 2C0 0.895431 0.895431 0 2 0H14C15.1046 0 16 0.89543 16 2V10C16 11.1046 15.1046 12 14 12H2C0.895431 12 0 11.1046 0 10V2ZM2 1C1.44772 1 1 1.44772 1 2V2.2169L8 6.4169L15 2.2169V2C15 1.44772 14.5523 1 14 1H2ZM15 3.3831L10.2919 6.20794L15 9.10522V3.3831ZM14.9662 10.2586L9.32583 6.7876L8 7.5831L6.67417 6.7876L1.03376 10.2586C1.14774 10.6855 1.53715 11 2 11H14C14.4628 11 14.8523 10.6855 14.9662 10.2586ZM1 9.10522L5.70808 6.20794L1 3.3831V9.10522Z" fill="black"/>
</svg>
