<svg id="_0101_chatting" xmlns="http://www.w3.org/2000/svg" viewBox="0 0 500 500" data-imageid="chatting-1-66" imageName="Chatting 1" class="illustrations_image" style="width: 185px;"><defs><style>.cls-1_chatting-1-66{opacity:.45;}.cls-1_chatting-1-66,.cls-2_chatting-1-66,.cls-3_chatting-1-66,.cls-4_chatting-1-66,.cls-5_chatting-1-66{fill:none;}.cls-6_chatting-1-66{fill:#fff;}.cls-7_chatting-1-66{fill:#f4a28c;}.cls-2_chatting-1-66{opacity:.46;}.cls-8_chatting-1-66{fill:#ce8172;}.cls-9_chatting-1-66{fill:#e6e6e6;}.cls-3_chatting-1-66{opacity:.03;}.cls-4_chatting-1-66{opacity:.08;}.cls-5_chatting-1-66{opacity:.31;}.cls-10_chatting-1-66{fill:#24285b;}.cls-11_chatting-1-66{fill:#000001;}.cls-12_chatting-1-66{fill:#ffd200;}.cls-13_chatting-1-66{fill:#68e1fd;}</style></defs><g id="sd_chatting-1-66" class="cls-3_chatting-1-66"><ellipse class="cls-11_chatting-1-66" cx="251.91" cy="394.13" rx="222.65" ry="29.25"/></g><g id="person_chatting-1-66"><path class="cls-7_chatting-1-66" d="m356.98,358.44l47.32-28.27s13.25-6.55,23.1-.68,3.05,12.97-5.39,8.27c0,0,.67,14.04-7.46,12.02-8.13-2.02-9.93-4.3-9.93-4.3l-35.72,37.49-11.92-24.53Z"/><g class="cls-4_chatting-1-66"><path class="cls-11_chatting-1-66" d="m356.98,358.44l47.32-28.27s13.25-6.55,23.1-.68,3.05,12.97-5.39,8.27c0,0,.67,14.04-7.46,12.02-8.13-2.02-9.93-4.3-9.93-4.3l-35.72,37.49-11.92-24.53Z"/></g><path class="cls-10_chatting-1-66" d="m375.54,261.29s14.99,38.85-9,41.52-18.63-41.71-5.29-50c13.34-8.28,14.29,8.47,14.29,8.47Z"/><path class="cls-7_chatting-1-66" d="m123.54,333.66l19.05-67.59c7.65-4.4,7.39-8.98-1.81-13.4-9.28-4.47-5.24-11.69-17.99-13.58-12.74-1.89,6.28,20.94,6.28,20.94h0l-38.75,73.63,8.3,23.73,77.15,16.61,3.74-51.67-55.98,11.34Z"/><g class="cls-4_chatting-1-66"><path class="cls-11_chatting-1-66" d="m123.54,333.66l19.05-67.59c7.65-4.4,7.39-8.98-1.81-13.4-9.28-4.47-5.24-11.69-17.99-13.58-12.74-1.89,6.28,20.94,6.28,20.94h0l-38.75,73.63,8.3,23.73,77.15,16.61,3.74-51.67-55.98,11.34Z"/></g><path class="cls-7_chatting-1-66" d="m387.06,242.62s-3.92,10.77-8.87,16.85c-2.01,2.46-5.69,2.84-8.12.8-3.02-2.54-6.38-6.84-4.98-12.87l1.12-10.52s.93-6.57,8.75-8.06c7.82-1.49,14.82,7.36,12.1,13.81Z"/><polygon class="cls-7_chatting-1-66" points="366.33 238.62 337.14 262.27 351.32 277.42 366.48 254.72 366.33 238.62"/><path class="cls-7_chatting-1-66" d="m384.24,249.28l1.03,5.35c.26,1.32-.95,2.46-2.26,2.13l-4.32-1.1,5.55-6.38Z"/><g class="cls-5_chatting-1-66"><path class="cls-8_chatting-1-66" d="m366.02,255.4s-1.44-2.54-1.13-8.54c0,0-5.75,5.19-2.79,14.43l3.93-5.89Z"/></g><path class="cls-7_chatting-1-66" d="m371.75,244.47s1.79-4.04-1.37-5.13c-3.15-1.09-5.76,4.73-1.93,7.17l3.29-2.04Z"/><path class="cls-7_chatting-1-66" d="m372.65,243.57s1.31-4.95-2.78-5.64c-4.09-.69-6.13,4.92-2.17,8.91l4.94-3.28Z"/><path class="cls-13_chatting-1-66 targetColor" d="m359.42,286.35h0c6,7.81,10.57,16.61,13.5,26.02,6.69,21.42,15.44,59.2,0,74.52-16.65,16.52-198.08,0-198.08,0l5.34-73.85s53.99-22.51,87.64-44.87c39.31-26.12,67.59-16.12,84.98,9.09,2.13,3.09,4.34,6.12,6.62,9.09Z" style="fill: rgb(104, 225, 253);"/><g class="cls-4_chatting-1-66"><path class="cls-11_chatting-1-66" d="m343.43,323.53s17-14.57,31.83-3.22c0,0-6.24-21.42-13.06-30.09-6.81-8.67-29.55-1.81-18.77,33.31Z"/></g><g class="cls-4_chatting-1-66"><path class="cls-11_chatting-1-66" d="m263.99,270.66l-20.31,11.92s1.73,1.61,4.54,4.5c8.48,8.73,9.76,22.24,2.92,32.3-12.79,18.81-29.34,50.6-13.6,72.14,0,0,83.5,5.06,114.95,1.11l-42.36-47.55,17.55-42.15-22.92-33.37-40.75,1.1Z"/></g><path class="cls-7_chatting-1-66" d="m174.84,386.89h-70.06c-16.77,0-31.29-11.65-34.93-28.02l-24.02-108.08,17.79-3.15,27.16,74.12c4.59,12.51,17.21,20.2,30.43,18.54l57.52-7.24-3.89,53.83Z"/><path class="cls-10_chatting-1-66" d="m387.66,239.2s-3.68,2.93-11.45,1.85c-6.27-.87-3.08,5.38-7.59,9.82-1.96,1.93-1.51,8.43-2.08,10.72-1.81,7.29,3.15,29.63-9.3,31-12.46,1.37-40.68-27.61-55.33-13.29-14.66,14.32-50.54,3-33.34-22.48,17.2-25.48,68.32-3.71,83.25-31.11s51.15-1.48,35.85,13.5Z"/><polygon class="cls-10_chatting-1-66" points="180.18 313.04 123.54 333.66 125.91 386.89 174.84 386.89 180.18 313.04"/><path class="cls-7_chatting-1-66" d="m45.83,250.8s-29.06-6.68-17.79-12.92c11.27-6.24,16.02,2.09,26.1,0,10.08-2.09,13.05,1.47,9.49,9.77l-17.79,3.15Z"/><rect class="cls-12_chatting-1-66" x="434.25" y="329.63" width="15.29" height="41.25" transform="translate(212.67 -164.93) rotate(27.61)"/><path class="cls-7_chatting-1-66" d="m332.69,271.85c-14.82-3.9-30.42,2.85-38.47,15.89-16.01,25.91-42.82,75.93-24.23,94.55,22.43,22.47,142.18,6.84,171.19,2.68,5.38-.77,10.36-3.44,13.77-7.67,3.97-4.93,6.65-11.91-.96-18.68-13.89-12.35-22.17,9.96-22.17,9.96l-102.06-6.3c-5.72-.35-8.92-6.75-5.77-11.54,14.35-21.86,41.65-70.22,8.71-78.88Z"/><path class="cls-13_chatting-1-66 targetColor" d="m269.56,327.57l62.1,14.94s41.12-52.29,4.19-71.84c-36.93-19.55-66.29,56.9-66.29,56.9Z" style="fill: rgb(104, 225, 253);"/><g class="cls-2_chatting-1-66"><path class="cls-6_chatting-1-66" d="m269.56,327.57l62.1,14.94s41.12-52.29,4.19-71.84c-36.93-19.55-66.29,56.9-66.29,56.9Z"/></g></g><g id="send_mail_chatting-1-66"><g class="cls-1_chatting-1-66"><path class="cls-9_chatting-1-66" d="m444.34,307.88c-.33.52-.87.91-1.52,1.02-1.23.22-2.41-.6-2.63-1.84,0-.02-.19-1.06-.58-2.93-.25-1.23.53-2.43,1.76-2.68s2.43.53,2.68,1.76c.41,1.97.6,3.06.6,3.06.1.58-.02,1.15-.31,1.61Zm-2.86-19.19c-.37.4-.88.67-1.46.72-1.25.12-2.35-.8-2.47-2.05-.09-.97-.19-1.97-.29-2.99-.13-1.25.78-2.36,2.02-2.49,1.25-.13,2.36.78,2.49,2.02.11,1.04.21,2.05.3,3.04.06.66-.17,1.29-.59,1.75Zm1.58-22.48c-.42.24-.92.35-1.44.28-1.24-.17-2.1-1.32-1.93-2.56.14-.98.27-1.97.4-2.97.16-1.24,1.3-2.12,2.54-1.96,1.24.16,2.12,1.3,1.96,2.54-.13,1.02-.27,2.03-.41,3.03-.1.72-.53,1.32-1.12,1.65Zm7.91-21.9c-.42,0-.84-.11-1.22-.35-1.06-.67-1.37-2.07-.7-3.13.53-.84,1.06-1.68,1.59-2.54.66-1.06,2.06-1.4,3.12-.74,1.07.66,1.4,2.05.74,3.12-.54.87-1.08,1.73-1.62,2.59-.43.68-1.17,1.05-1.92,1.05Zm10.3-18.51c-.32,0-.65-.07-.97-.22-1.13-.53-1.62-1.89-1.08-3.02.42-.9.84-1.8,1.24-2.71.51-1.14,1.85-1.66,3-1.15,1.14.51,1.66,1.85,1.15,3-.42.93-.84,1.86-1.28,2.79-.39.82-1.2,1.3-2.05,1.3Zm7.35-19.83c-.19,0-.38-.02-.57-.07-1.21-.32-1.94-1.56-1.62-2.77.25-.95.48-1.91.7-2.86.27-1.22,1.48-2,2.71-1.72,1.22.27,1.99,1.49,1.72,2.71-.23,1-.47,2.01-.73,3.01-.27,1.02-1.19,1.7-2.19,1.7Zm-98.45-6.38c-.14,0-.28-.01-.43-.04-.31-.06-.62-.12-.94-.2-.77-.18-1.53-.38-2.25-.61-1.19-.38-1.85-1.66-1.47-2.85s1.66-1.85,2.85-1.47c.61.19,1.24.37,1.88.51.26.06.52.11.78.16,1.23.24,2.04,1.42,1.8,2.65-.21,1.09-1.16,1.84-2.23,1.84Zm17.23-3.73c-.71,0-1.41-.33-1.86-.96-.72-1.02-.48-2.44.55-3.16.74-.52,1.46-1.1,2.16-1.72.93-.84,2.37-.75,3.2.18.83.93.75,2.37-.18,3.2-.82.74-1.69,1.42-2.57,2.04-.4.28-.85.41-1.3.41Zm-33.2-8.8c-.87,0-1.7-.5-2.08-1.35-.43-.98-.82-2.02-1.15-3.08-.37-1.2.3-2.47,1.5-2.84,1.2-.37,2.47.3,2.84,1.5.28.89.6,1.76.96,2.58.51,1.15-.01,2.49-1.16,2.99-.3.13-.61.19-.91.19Zm116.97-2.04c-1.22,0-2.23-.97-2.27-2.19-.03-.97-.09-1.94-.17-2.91-.1-1.25.83-2.34,2.07-2.45,1.26-.1,2.34.83,2.45,2.07.09,1.04.15,2.08.18,3.13.04,1.25-.94,2.3-2.19,2.34-.03,0-.05,0-.07,0Zm-71.79-6.2c-.25,0-.5-.04-.74-.13-1.18-.41-1.81-1.7-1.4-2.89.31-.9.59-1.81.85-2.74.33-1.21,1.58-1.92,2.79-1.59,1.21.33,1.92,1.58,1.59,2.79-.28,1.02-.6,2.04-.94,3.03-.32.94-1.2,1.53-2.14,1.53Zm-46.83-12.56c-.14,0-.28-.01-.42-.04-1.23-.23-2.04-1.42-1.81-2.65.19-1.03.42-2.06.68-3.09.31-1.21,1.54-1.95,2.75-1.64,1.21.31,1.95,1.54,1.64,2.75-.24.94-.44,1.88-.62,2.82-.21,1.09-1.16,1.85-2.23,1.85Zm-174.09-.69c-.08,0-.16,0-.23-.01-1-.1-2.02-.22-3.07-.36-1.24-.17-2.11-1.31-1.95-2.55.17-1.24,1.32-2.11,2.55-1.95,1,.13,1.98.25,2.93.35,1.25.13,2.15,1.24,2.03,2.49-.12,1.17-1.1,2.04-2.25,2.04Zm18.02-.55c-1.06,0-2-.74-2.22-1.82-.25-1.23.54-2.42,1.77-2.67.94-.19,1.87-.41,2.76-.67,1.2-.34,2.46.36,2.8,1.57.34,1.21-.36,2.46-1.57,2.8-1,.28-2.04.53-3.09.75-.15.03-.3.05-.45.05Zm270.09-.51c-.87,0-1.7-.5-2.07-1.34-.39-.87-.81-1.74-1.26-2.61-.58-1.11-.14-2.48.97-3.06,1.12-.58,2.48-.14,3.06.97.49.94.94,1.89,1.37,2.84.51,1.14,0,2.49-1.14,3-.3.13-.62.2-.93.2Zm-308.85-2.99c-.2,0-.39-.03-.59-.08-.97-.26-1.95-.53-2.95-.82-1.2-.34-1.9-1.6-1.56-2.8.34-1.2,1.6-1.9,2.8-1.56.97.28,1.94.55,2.88.8,1.21.33,1.93,1.57,1.6,2.78-.27,1.01-1.19,1.68-2.19,1.68Zm244.15-3.57c-1.17,0-2.16-.89-2.26-2.08-.08-.96-.19-1.92-.32-2.88-.18-1.24.69-2.39,1.93-2.56,1.23-.17,2.39.69,2.56,1.93.15,1.05.27,2.09.35,3.13.11,1.25-.82,2.35-2.07,2.45-.06,0-.13,0-.19,0Zm-186.93-2.51c-.61,0-1.22-.24-1.66-.72-.85-.92-.8-2.35.12-3.21.7-.65,1.39-1.33,2.06-2.03.87-.91,2.3-.93,3.21-.07.9.87.93,2.3.07,3.21-.73.76-1.48,1.5-2.24,2.21-.44.41-.99.61-1.54.61Zm-77.37-.34c-.25,0-.51-.04-.77-.14-.94-.34-1.89-.69-2.86-1.04-1.18-.43-1.78-1.74-1.34-2.91.43-1.17,1.74-1.77,2.91-1.34.95.35,1.89.69,2.82,1.03,1.18.42,1.79,1.72,1.37,2.9-.33.93-1.2,1.5-2.13,1.5Zm316.93-7.81c-.58,0-1.16-.22-1.6-.66-.68-.68-1.39-1.35-2.12-2.02-.92-.85-.99-2.28-.14-3.2.85-.92,2.28-.99,3.2-.14.78.71,1.53,1.43,2.26,2.15.89.88.89,2.32,0,3.21-.44.44-1.02.67-1.61.67Zm-94.03-.52c-.42,0-.85-.12-1.23-.36-1.05-.68-1.35-2.08-.68-3.14.57-.88,1.16-1.74,1.78-2.6.73-1.01,2.15-1.24,3.17-.51,1.01.73,1.24,2.15.51,3.17-.57.79-1.12,1.59-1.64,2.4-.43.67-1.16,1.04-1.91,1.04Zm-132.05-7.59c-.47,0-.95-.15-1.36-.45-1-.75-1.2-2.17-.45-3.18.6-.8,1.22-1.61,1.84-2.43.76-.99,2.18-1.18,3.18-.42.99.76,1.18,2.19.42,3.18-.61.8-1.22,1.6-1.81,2.39-.45.59-1.13.91-1.82.91Zm167.68-1.45c-.83,0-1.62-.45-2.02-1.24-.44-.85-.9-1.7-1.39-2.54-.63-1.08-.26-2.47.82-3.1,1.08-.63,2.47-.26,3.1.82.53.91,1.03,1.84,1.51,2.76.57,1.12.12,2.48-.99,3.05-.33.17-.68.25-1.03.25Zm41.6-3.24c-.4,0-.8-.1-1.17-.33-.86-.52-1.71-1.01-2.55-1.49-1.09-.61-1.48-2-.87-3.09.61-1.09,2-1.48,3.09-.87.88.5,1.77,1.02,2.67,1.56,1.07.65,1.42,2.04.77,3.11-.43.71-1.18,1.1-1.94,1.1Zm-62.63-2.87c-.72,0-1.43-.34-1.87-.99-.71-1.03-.44-2.45.59-3.15.87-.59,1.75-1.16,2.66-1.71,1.08-.64,2.47-.29,3.11.78.64,1.07.29,2.47-.78,3.11-.83.49-1.64,1.01-2.43,1.56-.39.27-.84.4-1.28.4Zm43.4-5.82c-.21,0-.43-.03-.65-.09-.95-.28-1.89-.54-2.82-.76-1.22-.3-1.96-1.53-1.66-2.74.3-1.22,1.53-1.96,2.74-1.66,1,.25,2,.52,3.02.82,1.2.36,1.89,1.62,1.53,2.82-.29.99-1.2,1.62-2.17,1.62Zm-23.91-1.93c-1.1,0-2.07-.8-2.24-1.92-.19-1.24.66-2.4,1.9-2.59,1.03-.16,2.08-.29,3.14-.38,1.24-.11,2.35.81,2.46,2.06.11,1.25-.81,2.35-2.06,2.46-.97.09-1.92.2-2.86.35-.12.02-.23.03-.35.03Zm-152.3-.64c-.61,0-1.22-.24-1.66-.72-.85-.92-.8-2.35.12-3.21.75-.7,1.52-1.39,2.32-2.07.95-.81,2.38-.7,3.2.25.81.95.7,2.38-.25,3.2-.75.64-1.48,1.29-2.18,1.95-.44.41-.99.61-1.54.61Zm140.97-2.13c-.54,0-1.08-.19-1.51-.58-.71-.64-1.45-1.27-2.21-1.89-.97-.79-1.12-2.22-.33-3.19s2.22-1.12,3.19-.33c.82.67,1.61,1.35,2.38,2.03.93.84,1.01,2.27.17,3.2-.45.5-1.07.75-1.69.75Zm-123.64-9.82c-.83,0-1.64-.46-2.03-1.26-.56-1.12-.1-2.48,1.02-3.04.91-.45,1.85-.89,2.8-1.33,1.14-.51,2.49,0,3,1.14.51,1.14,0,2.49-1.14,3-.91.41-1.79.83-2.65,1.25-.32.16-.67.24-1.01.24Zm105.94-1.6c-.32,0-.64-.07-.94-.21-.88-.4-1.78-.79-2.7-1.17-1.16-.48-1.71-1.81-1.23-2.96.48-1.16,1.8-1.7,2.96-1.23.97.4,1.92.81,2.85,1.24,1.14.52,1.64,1.87,1.12,3.01-.38.83-1.2,1.33-2.06,1.33Zm-86.08-5.41c-1.03,0-1.96-.7-2.2-1.75-.29-1.22.46-2.44,1.68-2.73.98-.23,1.98-.46,3-.67,1.23-.26,2.43.53,2.69,1.75s-.53,2.43-1.75,2.69c-.98.21-1.94.42-2.89.65-.18.04-.35.06-.53.06Zm65.99-1.06c-.15,0-.31-.02-.47-.05-.96-.2-1.93-.39-2.91-.57-1.23-.23-2.05-1.41-1.82-2.64.23-1.23,1.4-2.05,2.64-1.82,1.02.19,2.03.39,3.02.59,1.23.26,2.01,1.46,1.75,2.69-.22,1.07-1.17,1.8-2.22,1.8Zm-45.13-2.15c-1.17,0-2.16-.89-2.26-2.08-.1-1.25.82-2.34,2.07-2.45,1-.08,2.02-.16,3.05-.23,1.22-.09,2.33.86,2.41,2.11.08,1.25-.86,2.33-2.11,2.41-1.01.07-2,.14-2.97.22-.06,0-.13,0-.19,0Zm24.16-.46s-.08,0-.11,0c-.98-.05-1.98-.09-2.98-.12-1.25-.04-2.23-1.09-2.2-2.34.04-1.25,1.08-2.26,2.34-2.2,1.03.03,2.05.07,3.06.12,1.25.06,2.22,1.13,2.15,2.38-.06,1.21-1.06,2.16-2.26,2.16Z"/></g><polygon class="cls-12_chatting-1-66" points="112.94 130.32 133.32 118.44 51.06 109.28 88.68 164.91 102.07 136.27 112.94 130.32"/><polygon class="cls-12_chatting-1-66" points="112.94 130.32 107.24 151.1 102.07 136.27 51.06 109.28 112.94 130.32"/><g class="cls-2_chatting-1-66"><polygon class="cls-6_chatting-1-66" points="112.94 130.32 107.24 151.1 102.07 136.27 51.06 109.28 112.94 130.32"/></g><polygon class="cls-10_chatting-1-66" points="107.24 151.1 98.16 144.64 102.07 136.27 107.24 151.1"/></g></svg>