<svg width="100%" height="100%" id="svg" viewBox="0 0 1440 690" xmlns="http://www.w3.org/2000/svg" class="transition duration-300 ease-in-out delay-150"><defs><linearGradient id="gradient" x1="60%" y1="99%" x2="40%" y2="1%"><stop offset="5%" stop-color="#fe6b4d"></stop><stop offset="95%" stop-color="#fb9644"></stop></linearGradient></defs><path d="M 0,700 C 0,700 0,233 0,233 C 91.4736842105263,269.4306220095694 182.9473684210526,305.8612440191388 272,292 C 361.0526315789474,278.1387559808612 447.6842105263157,213.98564593301435 556,184 C 664.3157894736843,154.01435406698565 794.3157894736842,158.19617224880383 900,173 C 1005.6842105263158,187.80382775119617 1087.0526315789475,213.22966507177034 1173,225 C 1258.9473684210525,236.77033492822966 1349.4736842105262,234.88516746411483 1440,233 C 1440,233 1440,700 1440,700 Z" stroke="none" stroke-width="0" fill="url(#gradient)" fill-opacity="0.53" class="transition-all duration-300 ease-in-out delay-150 path-0" transform="rotate(-180 720 350)"></path><defs><linearGradient id="gradient" x1="60%" y1="99%" x2="40%" y2="1%"><stop offset="5%" stop-color="#fe6b4d"></stop><stop offset="95%" stop-color="#fb9644"></stop></linearGradient></defs><path d="M 0,700 C 0,700 0,466 0,466 C 71.98086124401911,469.18660287081343 143.96172248803822,472.3732057416268 251,468 C 358.0382775119618,463.6267942583732 500.13397129186603,451.69377990430627 607,432 C 713.866028708134,412.30622009569373 785.5023923444977,384.8516746411483 870,407 C 954.4976076555023,429.1483253588517 1051.8564593301435,500.8995215311005 1149,519 C 1246.1435406698565,537.1004784688995 1343.0717703349283,501.55023923444975 1440,466 C 1440,466 1440,700 1440,700 Z" stroke="none" stroke-width="0" fill="url(#gradient)" fill-opacity="1" class="transition-all duration-300 ease-in-out delay-150 path-1" transform="rotate(-180 720 350)"></path></svg>